G04 #@! TF.GenerationSoftware,KiCad,Pcbnew,(2018-02-09 revision dba198e57)-makepkg*
G04 #@! TF.CreationDate,2018-02-11T15:57:52+01:00*
G04 #@! TF.ProjectId,videopaccart,766964656F706163636172742E6B6963,rev?*
G04 #@! TF.SameCoordinates,Original*
G04 #@! TF.FileFunction,Copper,L2,Bot,Signal*
G04 #@! TF.FilePolarity,Positive*
%FSLAX46Y46*%
G04 Gerber Fmt 4.6, Leading zero omitted, Abs format (unit mm)*
G04 Created by KiCad (PCBNEW (2018-02-09 revision dba198e57)-makepkg) date 02/11/18 15:57:52*
%MOMM*%
%LPD*%
G01*
G04 APERTURE LIST*
%ADD10R,2.000000X7.700000*%
%ADD11R,1.700000X1.700000*%
%ADD12O,1.700000X1.700000*%
%ADD13O,1.600000X2.400000*%
%ADD14R,1.600000X2.400000*%
%ADD15R,1.143000X0.635000*%
%ADD16C,0.600000*%
%ADD17C,0.500000*%
%ADD18C,0.250000*%
G04 APERTURE END LIST*
D10*
X175920000Y-127000000D03*
X179840000Y-127000000D03*
X172000000Y-127000000D03*
X164160000Y-127000000D03*
X168080000Y-127000000D03*
X144560000Y-127000000D03*
X148480000Y-127000000D03*
X152400000Y-127000000D03*
X156320000Y-127000000D03*
X160240000Y-127000000D03*
X140640000Y-127000000D03*
X136720000Y-127000000D03*
X132800000Y-127000000D03*
X128880000Y-127000000D03*
X124960000Y-127000000D03*
D11*
X172720000Y-53340000D03*
D12*
X172720000Y-50800000D03*
X175260000Y-53340000D03*
X175260000Y-50800000D03*
X177800000Y-53340000D03*
X177800000Y-50800000D03*
D13*
X144272000Y-66040000D03*
X177292000Y-81280000D03*
X146812000Y-66040000D03*
X174752000Y-81280000D03*
X149352000Y-66040000D03*
X172212000Y-81280000D03*
X151892000Y-66040000D03*
X169672000Y-81280000D03*
X154432000Y-66040000D03*
X167132000Y-81280000D03*
X156972000Y-66040000D03*
X164592000Y-81280000D03*
X159512000Y-66040000D03*
X162052000Y-81280000D03*
X162052000Y-66040000D03*
X159512000Y-81280000D03*
X164592000Y-66040000D03*
X156972000Y-81280000D03*
X167132000Y-66040000D03*
X154432000Y-81280000D03*
X169672000Y-66040000D03*
X151892000Y-81280000D03*
X172212000Y-66040000D03*
X149352000Y-81280000D03*
X174752000Y-66040000D03*
X146812000Y-81280000D03*
X177292000Y-66040000D03*
D14*
X144272000Y-81280000D03*
D15*
X141732000Y-64262000D03*
X141732000Y-65786000D03*
D16*
X137789900Y-62086800D03*
X170720600Y-92582000D03*
X124555900Y-116631500D03*
X164126400Y-111161600D03*
X156129100Y-106567600D03*
X151224400Y-112470900D03*
X138783300Y-113836300D03*
X158096000Y-107767400D03*
X151721200Y-113148100D03*
X152462600Y-106504600D03*
X149189200Y-113788100D03*
X150899900Y-113776600D03*
X155652300Y-94461500D03*
X166925900Y-107495400D03*
X154559000Y-94292000D03*
X150939600Y-115239900D03*
X165182600Y-105627600D03*
X153206000Y-118314600D03*
X152836900Y-96087400D03*
X165404800Y-111222200D03*
X174136300Y-86637800D03*
X155628100Y-77669800D03*
X180211300Y-98308400D03*
X172453200Y-103580900D03*
X142450200Y-101022300D03*
X179561400Y-99563200D03*
X178921300Y-100239900D03*
X151371600Y-101025300D03*
X148239200Y-101148900D03*
X159108200Y-119515800D03*
X146939000Y-97955500D03*
X159166300Y-118483800D03*
X160007700Y-118718000D03*
X143129000Y-98229500D03*
X176809900Y-62231800D03*
X170897300Y-93419400D03*
X136165600Y-95797900D03*
X163829500Y-102462300D03*
X166372500Y-99956100D03*
X173463000Y-87288000D03*
X173944400Y-79345200D03*
X164204000Y-107709300D03*
X161844000Y-113903500D03*
X136852400Y-113932100D03*
X126664800Y-95504000D03*
X157694000Y-121589000D03*
X126380300Y-64293400D03*
X133134100Y-58010700D03*
X139427100Y-96359700D03*
X173583600Y-96507800D03*
X156665400Y-120008000D03*
X167845500Y-113781600D03*
X124416900Y-81614500D03*
X129204300Y-98182600D03*
X166631600Y-110023200D03*
X151345100Y-110349200D03*
X138528000Y-98574200D03*
X131715800Y-94845500D03*
X126771200Y-76614600D03*
X131239000Y-68515700D03*
X175405700Y-96366400D03*
X167475900Y-93149500D03*
X171898300Y-96490800D03*
X165774700Y-57036400D03*
X133469500Y-66600800D03*
X150477400Y-67507400D03*
X133618400Y-68134400D03*
X165761500Y-53848000D03*
X124869500Y-64273700D03*
D17*
X132800000Y-127000000D02*
X132800000Y-122699700D01*
X128880000Y-127000000D02*
X128880000Y-122874800D01*
X139965100Y-64262000D02*
X137789900Y-62086800D01*
X141732000Y-64262000D02*
X139965100Y-64262000D01*
X176442900Y-49442900D02*
X177800000Y-50800000D01*
X155783300Y-49442900D02*
X176442900Y-49442900D01*
X141732000Y-63494200D02*
X155783300Y-49442900D01*
X141732000Y-64262000D02*
X141732000Y-63494200D01*
X128880000Y-122874800D02*
X128880000Y-122699700D01*
X128880000Y-122699700D02*
X132800000Y-122699700D01*
X128880000Y-120955600D02*
X124555900Y-116631500D01*
X128880000Y-122699700D02*
X128880000Y-120955600D01*
X177292000Y-86010600D02*
X170720600Y-92582000D01*
X177292000Y-81280000D02*
X177292000Y-86010600D01*
D18*
X156628400Y-107066900D02*
X151224400Y-112470900D01*
X156628400Y-107066900D02*
X156129100Y-106567600D01*
X160031700Y-107066900D02*
X164126400Y-111161600D01*
X156628400Y-107066900D02*
X160031700Y-107066900D01*
X172212000Y-81280000D02*
X172212000Y-79754700D01*
X170770600Y-78313300D02*
X172212000Y-79754700D01*
X144067600Y-78313300D02*
X170770600Y-78313300D01*
X138783400Y-83597500D02*
X144067600Y-78313300D01*
X138783400Y-97945200D02*
X138783400Y-83597500D01*
X139153300Y-98315100D02*
X138783400Y-97945200D01*
X139153300Y-113466300D02*
X139153300Y-98315100D01*
X138783300Y-113836300D02*
X139153300Y-113466300D01*
X157101900Y-107767400D02*
X151721200Y-113148100D01*
X158096000Y-107767400D02*
X157101900Y-107767400D01*
X149189200Y-109710100D02*
X149189200Y-113788100D01*
X152394700Y-106504600D02*
X149189200Y-109710100D01*
X152462600Y-106504600D02*
X152394700Y-106504600D01*
X165753200Y-106322700D02*
X165753200Y-106252900D01*
X166925900Y-107495400D02*
X165753200Y-106322700D01*
X155652300Y-95179700D02*
X155652300Y-94461500D01*
X165835900Y-105363300D02*
X155652300Y-95179700D01*
X165835900Y-106170200D02*
X165835900Y-105363300D01*
X165753200Y-106252900D02*
X165835900Y-106170200D01*
X150899900Y-113100600D02*
X150899900Y-113776600D01*
X150580200Y-112780900D02*
X150899900Y-113100600D01*
X150580200Y-110229800D02*
X150580200Y-112780900D01*
X151086100Y-109723900D02*
X150580200Y-110229800D01*
X151422600Y-109723900D02*
X151086100Y-109723900D01*
X155684000Y-105462500D02*
X151422600Y-109723900D01*
X160439500Y-105462500D02*
X155684000Y-105462500D01*
X161229900Y-106252900D02*
X160439500Y-105462500D01*
X165753200Y-106252900D02*
X161229900Y-106252900D01*
X164546500Y-104991500D02*
X155040500Y-104991500D01*
X165182600Y-105627600D02*
X164546500Y-104991500D01*
X155040500Y-94773500D02*
X155040500Y-104991500D01*
X154559000Y-94292000D02*
X155040500Y-94773500D01*
X150273700Y-114574000D02*
X150939600Y-115239900D01*
X150273700Y-113111300D02*
X150273700Y-114574000D01*
X150129900Y-112967500D02*
X150273700Y-113111300D01*
X150129900Y-110043200D02*
X150129900Y-112967500D01*
X150899500Y-109273600D02*
X150129900Y-110043200D01*
X151236000Y-109273600D02*
X150899500Y-109273600D01*
X155040500Y-105469100D02*
X151236000Y-109273600D01*
X155040500Y-104991500D02*
X155040500Y-105469100D01*
X155608700Y-115911900D02*
X153206000Y-118314600D01*
X160941800Y-115911900D02*
X155608700Y-115911900D01*
X165404800Y-111448900D02*
X160941800Y-115911900D01*
X165404800Y-111222200D02*
X165404800Y-111448900D01*
X153099200Y-118314600D02*
X153206000Y-118314600D01*
X149823400Y-115038800D02*
X153099200Y-118314600D01*
X149823400Y-113297900D02*
X149823400Y-115038800D01*
X149679600Y-113154100D02*
X149823400Y-113297900D01*
X149679600Y-109856600D02*
X149679600Y-113154100D01*
X150712900Y-108823300D02*
X149679600Y-109856600D01*
X151049400Y-108823300D02*
X150712900Y-108823300D01*
X153103200Y-106769500D02*
X151049400Y-108823300D01*
X153103200Y-96353700D02*
X153103200Y-106769500D01*
X152836900Y-96087400D02*
X153103200Y-96353700D01*
X167132000Y-66040000D02*
X167132000Y-67565300D01*
X165521500Y-69175800D02*
X165521500Y-70025200D01*
X167132000Y-67565300D02*
X165521500Y-69175800D01*
X175908800Y-84865300D02*
X174136300Y-86637800D01*
X175908800Y-80412500D02*
X175908800Y-84865300D01*
X165521500Y-70025200D02*
X175908800Y-80412500D01*
X163272700Y-70025200D02*
X155628100Y-77669800D01*
X165521500Y-70025200D02*
X163272700Y-70025200D01*
X180211300Y-73073100D02*
X180211300Y-98308400D01*
X176022000Y-68883800D02*
X180211300Y-73073100D01*
X176022000Y-65269900D02*
X176022000Y-68883800D01*
X173836200Y-63084100D02*
X176022000Y-65269900D01*
X152307900Y-63084100D02*
X173836200Y-63084100D01*
X149352000Y-66040000D02*
X152307900Y-63084100D01*
X146812000Y-81280000D02*
X146812000Y-82805300D01*
X165788100Y-96915800D02*
X172453200Y-103580900D01*
X165788100Y-80427400D02*
X165788100Y-96915800D01*
X165104600Y-79743900D02*
X165788100Y-80427400D01*
X153965300Y-79743900D02*
X165104600Y-79743900D01*
X153162000Y-80547200D02*
X153965300Y-79743900D01*
X153162000Y-82060600D02*
X153162000Y-80547200D01*
X152417300Y-82805300D02*
X153162000Y-82060600D01*
X146812000Y-82805300D02*
X152417300Y-82805300D01*
X146313600Y-97158900D02*
X142450200Y-101022300D01*
X146313600Y-83303700D02*
X146313600Y-97158900D01*
X146812000Y-82805300D02*
X146313600Y-83303700D01*
X179561400Y-73644800D02*
X179561400Y-99563200D01*
X173482000Y-67565400D02*
X179561400Y-73644800D01*
X173482000Y-65249800D02*
X173482000Y-67565400D01*
X171803500Y-63571300D02*
X173482000Y-65249800D01*
X154886200Y-63571300D02*
X171803500Y-63571300D01*
X153250500Y-65207000D02*
X154886200Y-63571300D01*
X153250500Y-66869700D02*
X153250500Y-65207000D01*
X153949900Y-67569100D02*
X153250500Y-66869700D01*
X155442900Y-67569100D02*
X153949900Y-67569100D01*
X156972000Y-66040000D02*
X155442900Y-67569100D01*
X178921300Y-75544700D02*
X178921300Y-100239900D01*
X170942000Y-67565400D02*
X178921300Y-75544700D01*
X170942000Y-65283700D02*
X170942000Y-67565400D01*
X169680000Y-64021700D02*
X170942000Y-65283700D01*
X156450300Y-64021700D02*
X169680000Y-64021700D01*
X154432000Y-66040000D02*
X156450300Y-64021700D01*
X167132000Y-81280000D02*
X167132000Y-82805300D01*
X156320000Y-127000000D02*
X156320000Y-122824700D01*
X156040100Y-122544800D02*
X156320000Y-122824700D01*
X156040100Y-119727700D02*
X156040100Y-122544800D01*
X158941800Y-116826000D02*
X156040100Y-119727700D01*
X160718800Y-116826000D02*
X158941800Y-116826000D01*
X173078500Y-104466300D02*
X160718800Y-116826000D01*
X173078500Y-103321800D02*
X173078500Y-104466300D01*
X166850600Y-97093900D02*
X173078500Y-103321800D01*
X166850600Y-83086700D02*
X166850600Y-97093900D01*
X167132000Y-82805300D02*
X166850600Y-83086700D01*
X164592000Y-81280000D02*
X164592000Y-82805300D01*
X152400000Y-127000000D02*
X152400000Y-122824700D01*
X148563900Y-103833000D02*
X151371600Y-101025300D01*
X148563900Y-118988600D02*
X148563900Y-103833000D01*
X152400000Y-122824700D02*
X148563900Y-118988600D01*
X151371600Y-96025700D02*
X151371600Y-101025300D01*
X164592000Y-82805300D02*
X151371600Y-96025700D01*
X148074600Y-122419300D02*
X148480000Y-122824700D01*
X148074600Y-103578800D02*
X148074600Y-122419300D01*
X149879100Y-101774300D02*
X148074600Y-103578800D01*
X149879100Y-94978200D02*
X149879100Y-101774300D01*
X162052000Y-82805300D02*
X149879100Y-94978200D01*
X162052000Y-81280000D02*
X162052000Y-82805300D01*
X148480000Y-127000000D02*
X148480000Y-122824700D01*
X159512000Y-81280000D02*
X159512000Y-82805300D01*
X144560000Y-127000000D02*
X144560000Y-122824700D01*
X148239200Y-94078100D02*
X148239200Y-101148900D01*
X159512000Y-82805300D02*
X148239200Y-94078100D01*
X144560000Y-104828100D02*
X148239200Y-101148900D01*
X144560000Y-122824700D02*
X144560000Y-104828100D01*
X164771100Y-119515800D02*
X168080000Y-122824700D01*
X159108200Y-119515800D02*
X164771100Y-119515800D01*
X168080000Y-127000000D02*
X168080000Y-122824700D01*
X156972000Y-81280000D02*
X156972000Y-82805300D01*
X146939000Y-92838300D02*
X146939000Y-97955500D01*
X156972000Y-82805300D02*
X146939000Y-92838300D01*
X164160000Y-127000000D02*
X164160000Y-122824700D01*
X161532800Y-122824700D02*
X164160000Y-122824700D01*
X158482900Y-119774800D02*
X161532800Y-122824700D01*
X158482900Y-119167200D02*
X158482900Y-119774800D01*
X159166300Y-118483800D02*
X158482900Y-119167200D01*
X172000000Y-127000000D02*
X172000000Y-122824700D01*
X167893300Y-118718000D02*
X160007700Y-118718000D01*
X172000000Y-122824700D02*
X167893300Y-118718000D01*
X145636400Y-95722100D02*
X143129000Y-98229500D01*
X145636400Y-80422100D02*
X145636400Y-95722100D01*
X146303800Y-79754700D02*
X145636400Y-80422100D01*
X149352000Y-79754700D02*
X146303800Y-79754700D01*
X149352000Y-81280000D02*
X149352000Y-79754700D01*
X179840000Y-127000000D02*
X179840000Y-122824700D01*
X181555300Y-66977200D02*
X176809900Y-62231800D01*
X181555300Y-121109400D02*
X181555300Y-66977200D01*
X179840000Y-122824700D02*
X181555300Y-121109400D01*
X151892000Y-81280000D02*
X151892000Y-79867300D01*
X175920000Y-127000000D02*
X175920000Y-122824700D01*
X151892000Y-79683000D02*
X151892000Y-79867300D01*
X152332000Y-79243000D02*
X151892000Y-79683000D01*
X167119000Y-79243000D02*
X152332000Y-79243000D01*
X168351500Y-80475500D02*
X167119000Y-79243000D01*
X168351500Y-92451400D02*
X168351500Y-80475500D01*
X171765600Y-95865500D02*
X168351500Y-92451400D01*
X172157400Y-95865500D02*
X171765600Y-95865500D01*
X172666800Y-96374900D02*
X172157400Y-95865500D01*
X172666800Y-96475300D02*
X172666800Y-96374900D01*
X175919900Y-99728400D02*
X172666800Y-96475300D01*
X175920000Y-99728400D02*
X175919900Y-99728400D01*
X175920000Y-122824700D02*
X175920000Y-99728400D01*
D17*
X141732000Y-65786000D02*
X142753800Y-65786000D01*
X172720000Y-50800000D02*
X171419700Y-50800000D01*
X143007800Y-66040000D02*
X144272000Y-66040000D01*
X142753800Y-65786000D02*
X143007800Y-66040000D01*
X144272000Y-66040000D02*
X144272000Y-64389700D01*
X136720000Y-127000000D02*
X136720000Y-122699700D01*
X168412300Y-54248100D02*
X168069100Y-54591300D01*
X168412300Y-53807400D02*
X168412300Y-54248100D01*
X171419700Y-50800000D02*
X168412300Y-53807400D01*
X154021300Y-54640400D02*
X144272000Y-64389700D01*
X168020000Y-54640400D02*
X154021300Y-54640400D01*
X168069100Y-54591300D02*
X168020000Y-54640400D01*
X171508000Y-93419400D02*
X170897300Y-93419400D01*
X173846100Y-95757500D02*
X171508000Y-93419400D01*
X173894500Y-95757500D02*
X173846100Y-95757500D01*
X174333900Y-96196900D02*
X173894500Y-95757500D01*
X174333900Y-96245300D02*
X174333900Y-96196900D01*
X174655400Y-96566800D02*
X174333900Y-96245300D01*
X174655400Y-97035100D02*
X174655400Y-96566800D01*
X178631500Y-101011200D02*
X174655400Y-97035100D01*
X179244500Y-101011200D02*
X178631500Y-101011200D01*
X180975600Y-99280100D02*
X179244500Y-101011200D01*
X180975600Y-67497900D02*
X180975600Y-99280100D01*
X168069100Y-54591300D02*
X180975600Y-67497900D01*
X136079900Y-95883600D02*
X136165600Y-95797900D01*
X136079900Y-122059600D02*
X136079900Y-95883600D01*
X136720000Y-122699700D02*
X136079900Y-122059600D01*
D18*
X166335700Y-99956100D02*
X163829500Y-102462300D01*
X166372500Y-99956100D02*
X166335700Y-99956100D01*
X173463000Y-79826600D02*
X173463000Y-87288000D01*
X173944400Y-79345200D02*
X173463000Y-79826600D01*
X162271300Y-113903500D02*
X161844000Y-113903500D01*
X164779500Y-111395300D02*
X162271300Y-113903500D01*
X164779500Y-108284800D02*
X164779500Y-111395300D01*
X164204000Y-107709300D02*
X164779500Y-108284800D01*
X140640000Y-127000000D02*
X140640000Y-122824700D01*
X136852400Y-119037100D02*
X136852400Y-113932100D01*
X140640000Y-122824700D02*
X136852400Y-119037100D01*
X164592000Y-66040000D02*
X164592000Y-67565300D01*
X126664800Y-95079200D02*
X126664800Y-95504000D01*
X143881000Y-77863000D02*
X126664800Y-95079200D01*
X154294300Y-77863000D02*
X143881000Y-77863000D01*
X164592000Y-67565300D02*
X154294300Y-77863000D01*
X158929700Y-122824700D02*
X160240000Y-122824700D01*
X157694000Y-121589000D02*
X158929700Y-122824700D01*
X160240000Y-127000000D02*
X160240000Y-122824700D01*
X132663000Y-58010700D02*
X126380300Y-64293400D01*
X133134100Y-58010700D02*
X132663000Y-58010700D01*
X139427100Y-83590700D02*
X139427100Y-96359700D01*
X144254200Y-78763600D02*
X139427100Y-83590700D01*
X169228100Y-78763600D02*
X144254200Y-78763600D01*
X170820800Y-80356300D02*
X169228100Y-78763600D01*
X170820800Y-91575300D02*
X170820800Y-80356300D01*
X170070700Y-92325400D02*
X170820800Y-91575300D01*
X170070700Y-93507000D02*
X170070700Y-92325400D01*
X170983800Y-94420100D02*
X170070700Y-93507000D01*
X171495900Y-94420100D02*
X170983800Y-94420100D01*
X173583600Y-96507800D02*
X171495900Y-94420100D01*
X164218900Y-117408200D02*
X167845500Y-113781600D01*
X159265200Y-117408200D02*
X164218900Y-117408200D01*
X156665400Y-120008000D02*
X159265200Y-117408200D01*
X124416900Y-94140400D02*
X124416900Y-81614500D01*
X128459100Y-98182600D02*
X124416900Y-94140400D01*
X129204300Y-98182600D02*
X128459100Y-98182600D01*
X136101900Y-94845500D02*
X131715800Y-94845500D01*
X137023200Y-95766800D02*
X136101900Y-94845500D01*
X137023200Y-97069400D02*
X137023200Y-95766800D01*
X138528000Y-98574200D02*
X137023200Y-97069400D01*
X166631600Y-109170900D02*
X166631600Y-110023200D01*
X164211600Y-106750900D02*
X166631600Y-109170900D01*
X160448000Y-106750900D02*
X164211600Y-106750900D01*
X159639300Y-105942200D02*
X160448000Y-106750900D01*
X155841200Y-105942200D02*
X159639300Y-105942200D01*
X151434200Y-110349200D02*
X155841200Y-105942200D01*
X151345100Y-110349200D02*
X151434200Y-110349200D01*
X159512000Y-66040000D02*
X159512000Y-67565300D01*
X150462700Y-76614600D02*
X126771200Y-76614600D01*
X159512000Y-67565300D02*
X150462700Y-76614600D01*
X178458500Y-93313600D02*
X175405700Y-96366400D01*
X178458500Y-79411100D02*
X178458500Y-93313600D01*
X168402000Y-69354600D02*
X178458500Y-79411100D01*
X168402000Y-65278400D02*
X168402000Y-69354600D01*
X167601900Y-64478300D02*
X168402000Y-65278400D01*
X159060700Y-64478300D02*
X167601900Y-64478300D01*
X158242000Y-65297000D02*
X159060700Y-64478300D01*
X158242000Y-66790800D02*
X158242000Y-65297000D01*
X156268100Y-68764700D02*
X158242000Y-66790800D01*
X131488000Y-68764700D02*
X156268100Y-68764700D01*
X131239000Y-68515700D02*
X131488000Y-68764700D01*
X170817200Y-96490800D02*
X171898300Y-96490800D01*
X167475900Y-93149500D02*
X170817200Y-96490800D01*
X156313700Y-57036400D02*
X165774700Y-57036400D01*
X148082000Y-65268100D02*
X156313700Y-57036400D01*
X148082000Y-66775800D02*
X148082000Y-65268100D01*
X147257700Y-67600100D02*
X148082000Y-66775800D01*
X134468800Y-67600100D02*
X147257700Y-67600100D01*
X133469500Y-66600800D02*
X134468800Y-67600100D01*
X149850400Y-68134400D02*
X133618400Y-68134400D01*
X150477400Y-67507400D02*
X149850400Y-68134400D01*
X153989700Y-53848000D02*
X165761500Y-53848000D01*
X142894300Y-64943400D02*
X153989700Y-53848000D01*
X125539200Y-64943400D02*
X142894300Y-64943400D01*
X124869500Y-64273700D02*
X125539200Y-64943400D01*
M02*
