M48
;DRILL file {KiCad (2018-02-09 revision dba198e57)-makepkg} date 02/11/18 15:58:52
;FORMAT={-:-/ absolute / inch / decimal}
FMAT,2
INCH,TZ
T1C0.0157
T2C0.0315
T3C0.0394
%
G90
G05
M72
T1
X4.8983Y-3.2132
X4.9038Y-4.5918
X4.9161Y-2.5305
X4.9756Y-2.5312
X4.9868Y-3.76
X4.991Y-3.0163
X5.0868Y-3.8655
X5.1669Y-2.6975
X5.1857Y-3.7341
X5.2415Y-2.2839
X5.2547Y-2.6221
X5.2606Y-2.6825
X5.3609Y-3.7716
X5.3879Y-4.4855
X5.4248Y-2.4444
X5.4539Y-3.8809
X5.4639Y-4.4817
X5.4893Y-3.7937
X5.6083Y-3.9773
X5.635Y-3.8673
X5.785Y-3.8565
X5.8362Y-3.9822
X5.8736Y-4.4798
X5.9243Y-2.6578
X5.9409Y-4.4794
X5.9425Y-4.537
X5.9537Y-4.428
X5.9585Y-4.3445
X5.9595Y-3.9774
X5.9733Y-4.4546
X6.0025Y-4.1931
X6.0172Y-3.783
X6.0317Y-4.6581
X6.085Y-3.7123
X6.1271Y-3.0579
X6.128Y-3.719
X6.1468Y-4.1956
X6.1679Y-4.7247
X6.2084Y-4.787
X6.2243Y-4.2428
X6.2641Y-4.7053
X6.2664Y-4.6647
X6.2995Y-4.6739
X6.3718Y-4.4844
X6.45Y-4.0339
X6.4617Y-4.3764
X6.4647Y-4.2405
X6.5033Y-4.1586
X6.512Y-4.3788
X6.526Y-2.12
X6.5266Y-2.2455
X6.5501Y-3.9353
X6.5603Y-4.3316
X6.5719Y-4.2321
X6.5935Y-3.6673
X6.6081Y-4.4796
X6.7213Y-3.645
X6.7282Y-3.6779
X6.7676Y-3.7989
X6.7895Y-4.078
X6.8293Y-3.4365
X6.834Y-3.7995
X6.8482Y-3.1238
X6.8558Y-3.4109
X6.9057Y-3.794
X6.961Y-2.4501
X7.0441Y-3.9465
X7.0693Y-3.9198
X7.0949Y-3.8704
T2
X5.68Y-2.6
X5.68Y-3.2
X5.78Y-2.6
X5.78Y-3.2
X5.88Y-2.6
X5.88Y-3.2
X5.98Y-2.6
X5.98Y-3.2
X6.08Y-2.6
X6.08Y-3.2
X6.18Y-2.6
X6.18Y-3.2
X6.28Y-2.6
X6.28Y-3.2
X6.38Y-2.6
X6.38Y-3.2
X6.48Y-2.6
X6.48Y-3.2
X6.58Y-2.6
X6.58Y-3.2
X6.68Y-2.6
X6.68Y-3.2
X6.78Y-2.6
X6.78Y-3.2
X6.88Y-2.6
X6.88Y-3.2
X6.98Y-2.6
X6.98Y-3.2
T3
X6.8Y-2.
X6.8Y-2.1
X6.9Y-2.
X6.9Y-2.1
X7.Y-2.
X7.Y-2.1
T0
M30
