G04 #@! TF.GenerationSoftware,KiCad,Pcbnew,(2018-02-09 revision dba198e57)-makepkg*
G04 #@! TF.CreationDate,2018-02-11T15:57:52+01:00*
G04 #@! TF.ProjectId,videopaccart,766964656F706163636172742E6B6963,rev?*
G04 #@! TF.SameCoordinates,Original*
G04 #@! TF.FileFunction,Legend,Top*
G04 #@! TF.FilePolarity,Positive*
%FSLAX46Y46*%
G04 Gerber Fmt 4.6, Leading zero omitted, Abs format (unit mm)*
G04 Created by KiCad (PCBNEW (2018-02-09 revision dba198e57)-makepkg) date 02/11/18 15:57:52*
%MOMM*%
%LPD*%
G01*
G04 APERTURE LIST*
%ADD10C,0.200660*%
%ADD11C,0.120000*%
%ADD12C,0.150000*%
%ADD13C,0.127000*%
%ADD14C,0.304800*%
%ADD15C,0.114300*%
G04 APERTURE END LIST*
D10*
X137863580Y-46228000D02*
X137863580Y-59527440D01*
X137863580Y-59527440D02*
X124264420Y-59527440D01*
X124264420Y-59527440D02*
X124264420Y-46228000D01*
X124264420Y-46228000D02*
X137863580Y-46228000D01*
D11*
X171390000Y-49360000D02*
X179130000Y-49360000D01*
X179130000Y-49360000D02*
X179130000Y-46700000D01*
X179130000Y-46700000D02*
X171390000Y-46700000D01*
X171390000Y-46700000D02*
X171390000Y-49360000D01*
X172340000Y-46700000D02*
X172340000Y-40700000D01*
X172340000Y-40700000D02*
X173100000Y-40700000D01*
X173100000Y-40700000D02*
X173100000Y-46700000D01*
X172400000Y-46700000D02*
X172400000Y-40700000D01*
X172520000Y-46700000D02*
X172520000Y-40700000D01*
X172640000Y-46700000D02*
X172640000Y-40700000D01*
X172760000Y-46700000D02*
X172760000Y-40700000D01*
X172880000Y-46700000D02*
X172880000Y-40700000D01*
X173000000Y-46700000D02*
X173000000Y-40700000D01*
X172340000Y-49757071D02*
X172340000Y-49360000D01*
X173100000Y-49757071D02*
X173100000Y-49360000D01*
X172340000Y-52230000D02*
X172340000Y-51842929D01*
X173100000Y-52230000D02*
X173100000Y-51842929D01*
X173990000Y-49360000D02*
X173990000Y-46700000D01*
X174880000Y-46700000D02*
X174880000Y-40700000D01*
X174880000Y-40700000D02*
X175640000Y-40700000D01*
X175640000Y-40700000D02*
X175640000Y-46700000D01*
X174880000Y-49757071D02*
X174880000Y-49360000D01*
X175640000Y-49757071D02*
X175640000Y-49360000D01*
X174880000Y-52297071D02*
X174880000Y-51842929D01*
X175640000Y-52297071D02*
X175640000Y-51842929D01*
X176530000Y-49360000D02*
X176530000Y-46700000D01*
X177420000Y-46700000D02*
X177420000Y-40700000D01*
X177420000Y-40700000D02*
X178180000Y-40700000D01*
X178180000Y-40700000D02*
X178180000Y-46700000D01*
X177420000Y-49757071D02*
X177420000Y-49360000D01*
X178180000Y-49757071D02*
X178180000Y-49360000D01*
X177420000Y-52297071D02*
X177420000Y-51842929D01*
X178180000Y-52297071D02*
X178180000Y-51842929D01*
X172720000Y-54610000D02*
X171450000Y-54610000D01*
X171450000Y-54610000D02*
X171450000Y-53340000D01*
D12*
X170238000Y-90228000D02*
X170238000Y-90453000D01*
X177488000Y-90228000D02*
X177488000Y-90528000D01*
X177488000Y-97478000D02*
X177488000Y-97178000D01*
X170238000Y-97478000D02*
X170238000Y-97178000D01*
X170238000Y-90228000D02*
X170538000Y-90228000D01*
X170238000Y-97478000D02*
X170538000Y-97478000D01*
X177488000Y-97478000D02*
X177188000Y-97478000D01*
X177488000Y-90228000D02*
X177188000Y-90228000D01*
X170238000Y-90453000D02*
X169013000Y-90453000D01*
X168815000Y-114233000D02*
X168715000Y-114233000D01*
X161990000Y-114233000D02*
X162015000Y-114233000D01*
X161990000Y-109583000D02*
X162015000Y-109583000D01*
X168815000Y-108508000D02*
X168815000Y-114233000D01*
X161990000Y-109583000D02*
X161990000Y-114233000D01*
D11*
X150856000Y-56242000D02*
X150856000Y-54982000D01*
X150856000Y-49422000D02*
X150856000Y-50682000D01*
X147096000Y-56242000D02*
X150856000Y-56242000D01*
X144846000Y-49422000D02*
X150856000Y-49422000D01*
D12*
X125781000Y-92324000D02*
X125781000Y-92349000D01*
X129931000Y-92324000D02*
X129931000Y-92439000D01*
X129931000Y-101224000D02*
X129931000Y-101109000D01*
X125781000Y-101224000D02*
X125781000Y-101109000D01*
X125781000Y-92324000D02*
X129931000Y-92324000D01*
X125781000Y-101224000D02*
X129931000Y-101224000D01*
X125781000Y-92349000D02*
X124406000Y-92349000D01*
X131680000Y-70204000D02*
X131680000Y-69404000D01*
X126130000Y-70204000D02*
X126130000Y-69304000D01*
X126130000Y-63654000D02*
X126130000Y-64554000D01*
X131680000Y-63654000D02*
X131680000Y-64554000D01*
X131680000Y-70204000D02*
X126130000Y-70204000D01*
X131680000Y-63654000D02*
X126130000Y-63654000D01*
X131680000Y-69404000D02*
X132955000Y-69404000D01*
X126228000Y-76576000D02*
X126228000Y-76601000D01*
X130378000Y-76576000D02*
X130378000Y-76691000D01*
X130378000Y-85476000D02*
X130378000Y-85361000D01*
X126228000Y-85476000D02*
X126228000Y-85361000D01*
X126228000Y-76576000D02*
X130378000Y-76576000D01*
X126228000Y-85476000D02*
X130378000Y-85476000D01*
X126228000Y-76601000D02*
X124853000Y-76601000D01*
X157607000Y-99187000D02*
X139954000Y-99187000D01*
X139954000Y-93853000D02*
X157734000Y-93853000D01*
X157734000Y-99187000D02*
X157734000Y-93853000D01*
X139954000Y-93853000D02*
X139954000Y-99187000D01*
X139954000Y-95885000D02*
X141224000Y-95885000D01*
X141224000Y-95885000D02*
X141224000Y-97155000D01*
X141224000Y-97155000D02*
X139954000Y-97155000D01*
D11*
X142882000Y-64600000D02*
X142882000Y-82720000D01*
X178682000Y-64600000D02*
X142882000Y-64600000D01*
X178682000Y-82720000D02*
X178682000Y-64600000D01*
X142882000Y-82720000D02*
X178682000Y-82720000D01*
X142942000Y-67600000D02*
X142942000Y-72660000D01*
X178622000Y-67600000D02*
X142942000Y-67600000D01*
X178622000Y-79720000D02*
X178622000Y-67600000D01*
X142942000Y-79720000D02*
X178622000Y-79720000D01*
X142942000Y-74660000D02*
X142942000Y-79720000D01*
X142942000Y-72660000D02*
G75*
G02X142942000Y-74660000I0J-1000000D01*
G01*
D13*
X142875000Y-56007000D02*
X140589000Y-56007000D01*
X140589000Y-56007000D02*
X140589000Y-54737000D01*
X140589000Y-54737000D02*
X142875000Y-54737000D01*
X142875000Y-54737000D02*
X142875000Y-56007000D01*
X142875000Y-52197000D02*
X142875000Y-53467000D01*
X140589000Y-52197000D02*
X142875000Y-52197000D01*
X140589000Y-53467000D02*
X140589000Y-52197000D01*
X142875000Y-53467000D02*
X140589000Y-53467000D01*
X135001000Y-93599000D02*
X133731000Y-93599000D01*
X135001000Y-91313000D02*
X135001000Y-93599000D01*
X133731000Y-91313000D02*
X135001000Y-91313000D01*
X133731000Y-93599000D02*
X133731000Y-91313000D01*
X134239000Y-76581000D02*
X134239000Y-78867000D01*
X134239000Y-78867000D02*
X132969000Y-78867000D01*
X132969000Y-78867000D02*
X132969000Y-76581000D01*
X132969000Y-76581000D02*
X134239000Y-76581000D01*
X166497000Y-95885000D02*
X166497000Y-93599000D01*
X166497000Y-93599000D02*
X167767000Y-93599000D01*
X167767000Y-93599000D02*
X167767000Y-95885000D01*
X167767000Y-95885000D02*
X166497000Y-95885000D01*
X166243000Y-48133000D02*
X168529000Y-48133000D01*
X168529000Y-48133000D02*
X168529000Y-49403000D01*
X168529000Y-49403000D02*
X166243000Y-49403000D01*
X166243000Y-49403000D02*
X166243000Y-48133000D01*
X166243000Y-57023000D02*
X166243000Y-55753000D01*
X168529000Y-57023000D02*
X166243000Y-57023000D01*
X168529000Y-55753000D02*
X168529000Y-57023000D01*
X166243000Y-55753000D02*
X168529000Y-55753000D01*
X166243000Y-50673000D02*
X168529000Y-50673000D01*
X168529000Y-50673000D02*
X168529000Y-51943000D01*
X168529000Y-51943000D02*
X166243000Y-51943000D01*
X166243000Y-51943000D02*
X166243000Y-50673000D01*
X166243000Y-54483000D02*
X166243000Y-53213000D01*
X168529000Y-54483000D02*
X166243000Y-54483000D01*
X168529000Y-53213000D02*
X168529000Y-54483000D01*
X166243000Y-53213000D02*
X168529000Y-53213000D01*
D12*
X125506666Y-120102380D02*
X125506666Y-120816666D01*
X125459047Y-120959523D01*
X125363809Y-121054761D01*
X125220952Y-121102380D01*
X125125714Y-121102380D01*
X126506666Y-121102380D02*
X125935238Y-121102380D01*
X126220952Y-121102380D02*
X126220952Y-120102380D01*
X126125714Y-120245238D01*
X126030476Y-120340476D01*
X125935238Y-120388095D01*
D14*
X130571240Y-51596108D02*
X130571240Y-52684680D01*
X130498668Y-52902394D01*
X130353525Y-53047537D01*
X130135811Y-53120108D01*
X129990668Y-53120108D01*
X131224382Y-51741251D02*
X131296954Y-51668680D01*
X131442097Y-51596108D01*
X131804954Y-51596108D01*
X131950097Y-51668680D01*
X132022668Y-51741251D01*
X132095240Y-51886394D01*
X132095240Y-52031537D01*
X132022668Y-52249251D01*
X131151811Y-53120108D01*
X132095240Y-53120108D01*
D12*
X170807142Y-48899285D02*
X170854761Y-48946904D01*
X170902380Y-49089761D01*
X170902380Y-49185000D01*
X170854761Y-49327857D01*
X170759523Y-49423095D01*
X170664285Y-49470714D01*
X170473809Y-49518333D01*
X170330952Y-49518333D01*
X170140476Y-49470714D01*
X170045238Y-49423095D01*
X169950000Y-49327857D01*
X169902380Y-49185000D01*
X169902380Y-49089761D01*
X169950000Y-48946904D01*
X169997619Y-48899285D01*
X169902380Y-48280238D02*
X169902380Y-48089761D01*
X169950000Y-47994523D01*
X170045238Y-47899285D01*
X170235714Y-47851666D01*
X170569047Y-47851666D01*
X170759523Y-47899285D01*
X170854761Y-47994523D01*
X170902380Y-48089761D01*
X170902380Y-48280238D01*
X170854761Y-48375476D01*
X170759523Y-48470714D01*
X170569047Y-48518333D01*
X170235714Y-48518333D01*
X170045238Y-48470714D01*
X169950000Y-48375476D01*
X169902380Y-48280238D01*
X170902380Y-47423095D02*
X169902380Y-47423095D01*
X170902380Y-46851666D01*
X169902380Y-46851666D01*
X170902380Y-45851666D02*
X170902380Y-46423095D01*
X170902380Y-46137380D02*
X169902380Y-46137380D01*
X170045238Y-46232619D01*
X170140476Y-46327857D01*
X170188095Y-46423095D01*
X173101095Y-87455380D02*
X173101095Y-88264904D01*
X173148714Y-88360142D01*
X173196333Y-88407761D01*
X173291571Y-88455380D01*
X173482047Y-88455380D01*
X173577285Y-88407761D01*
X173624904Y-88360142D01*
X173672523Y-88264904D01*
X173672523Y-87455380D01*
X174577285Y-87788714D02*
X174577285Y-88455380D01*
X174339190Y-87407761D02*
X174101095Y-88122047D01*
X174720142Y-88122047D01*
X169117380Y-112669904D02*
X169926904Y-112669904D01*
X170022142Y-112622285D01*
X170069761Y-112574666D01*
X170117380Y-112479428D01*
X170117380Y-112288952D01*
X170069761Y-112193714D01*
X170022142Y-112146095D01*
X169926904Y-112098476D01*
X169117380Y-112098476D01*
X169117380Y-111146095D02*
X169117380Y-111622285D01*
X169593571Y-111669904D01*
X169545952Y-111622285D01*
X169498333Y-111527047D01*
X169498333Y-111288952D01*
X169545952Y-111193714D01*
X169593571Y-111146095D01*
X169688809Y-111098476D01*
X169926904Y-111098476D01*
X170022142Y-111146095D01*
X170069761Y-111193714D01*
X170117380Y-111288952D01*
X170117380Y-111527047D01*
X170069761Y-111622285D01*
X170022142Y-111669904D01*
X148184095Y-47784380D02*
X148184095Y-48593904D01*
X148231714Y-48689142D01*
X148279333Y-48736761D01*
X148374571Y-48784380D01*
X148565047Y-48784380D01*
X148660285Y-48736761D01*
X148707904Y-48689142D01*
X148755523Y-48593904D01*
X148755523Y-47784380D01*
X149755523Y-48784380D02*
X149184095Y-48784380D01*
X149469809Y-48784380D02*
X149469809Y-47784380D01*
X149374571Y-47927238D01*
X149279333Y-48022476D01*
X149184095Y-48070095D01*
X127094095Y-90851380D02*
X127094095Y-91660904D01*
X127141714Y-91756142D01*
X127189333Y-91803761D01*
X127284571Y-91851380D01*
X127475047Y-91851380D01*
X127570285Y-91803761D01*
X127617904Y-91756142D01*
X127665523Y-91660904D01*
X127665523Y-90851380D01*
X128094095Y-90946619D02*
X128141714Y-90899000D01*
X128236952Y-90851380D01*
X128475047Y-90851380D01*
X128570285Y-90899000D01*
X128617904Y-90946619D01*
X128665523Y-91041857D01*
X128665523Y-91137095D01*
X128617904Y-91279952D01*
X128046476Y-91851380D01*
X128665523Y-91851380D01*
X128143095Y-70581380D02*
X128143095Y-71390904D01*
X128190714Y-71486142D01*
X128238333Y-71533761D01*
X128333571Y-71581380D01*
X128524047Y-71581380D01*
X128619285Y-71533761D01*
X128666904Y-71486142D01*
X128714523Y-71390904D01*
X128714523Y-70581380D01*
X129333571Y-71009952D02*
X129238333Y-70962333D01*
X129190714Y-70914714D01*
X129143095Y-70819476D01*
X129143095Y-70771857D01*
X129190714Y-70676619D01*
X129238333Y-70629000D01*
X129333571Y-70581380D01*
X129524047Y-70581380D01*
X129619285Y-70629000D01*
X129666904Y-70676619D01*
X129714523Y-70771857D01*
X129714523Y-70819476D01*
X129666904Y-70914714D01*
X129619285Y-70962333D01*
X129524047Y-71009952D01*
X129333571Y-71009952D01*
X129238333Y-71057571D01*
X129190714Y-71105190D01*
X129143095Y-71200428D01*
X129143095Y-71390904D01*
X129190714Y-71486142D01*
X129238333Y-71533761D01*
X129333571Y-71581380D01*
X129524047Y-71581380D01*
X129619285Y-71533761D01*
X129666904Y-71486142D01*
X129714523Y-71390904D01*
X129714523Y-71200428D01*
X129666904Y-71105190D01*
X129619285Y-71057571D01*
X129524047Y-71009952D01*
X127541095Y-75103380D02*
X127541095Y-75912904D01*
X127588714Y-76008142D01*
X127636333Y-76055761D01*
X127731571Y-76103380D01*
X127922047Y-76103380D01*
X128017285Y-76055761D01*
X128064904Y-76008142D01*
X128112523Y-75912904D01*
X128112523Y-75103380D01*
X128493476Y-75103380D02*
X129160142Y-75103380D01*
X128731571Y-76103380D01*
X148717095Y-95972380D02*
X148717095Y-96781904D01*
X148764714Y-96877142D01*
X148812333Y-96924761D01*
X148907571Y-96972380D01*
X149098047Y-96972380D01*
X149193285Y-96924761D01*
X149240904Y-96877142D01*
X149288523Y-96781904D01*
X149288523Y-95972380D01*
X150193285Y-95972380D02*
X150002809Y-95972380D01*
X149907571Y-96020000D01*
X149859952Y-96067619D01*
X149764714Y-96210476D01*
X149717095Y-96400952D01*
X149717095Y-96781904D01*
X149764714Y-96877142D01*
X149812333Y-96924761D01*
X149907571Y-96972380D01*
X150098047Y-96972380D01*
X150193285Y-96924761D01*
X150240904Y-96877142D01*
X150288523Y-96781904D01*
X150288523Y-96543809D01*
X150240904Y-96448571D01*
X150193285Y-96400952D01*
X150098047Y-96353333D01*
X149907571Y-96353333D01*
X149812333Y-96400952D01*
X149764714Y-96448571D01*
X149717095Y-96543809D01*
X141394380Y-74421904D02*
X142203904Y-74421904D01*
X142299142Y-74374285D01*
X142346761Y-74326666D01*
X142394380Y-74231428D01*
X142394380Y-74040952D01*
X142346761Y-73945714D01*
X142299142Y-73898095D01*
X142203904Y-73850476D01*
X141394380Y-73850476D01*
X141394380Y-73469523D02*
X141394380Y-72850476D01*
X141775333Y-73183809D01*
X141775333Y-73040952D01*
X141822952Y-72945714D01*
X141870571Y-72898095D01*
X141965809Y-72850476D01*
X142203904Y-72850476D01*
X142299142Y-72898095D01*
X142346761Y-72945714D01*
X142394380Y-73040952D01*
X142394380Y-73326666D01*
X142346761Y-73421904D01*
X142299142Y-73469523D01*
D15*
X141655800Y-55517868D02*
X141634028Y-55542059D01*
X141568714Y-55566249D01*
X141525171Y-55566249D01*
X141459857Y-55542059D01*
X141416314Y-55493678D01*
X141394542Y-55445297D01*
X141372771Y-55348535D01*
X141372771Y-55275963D01*
X141394542Y-55179201D01*
X141416314Y-55130820D01*
X141459857Y-55082440D01*
X141525171Y-55058249D01*
X141568714Y-55058249D01*
X141634028Y-55082440D01*
X141655800Y-55106630D01*
X142091228Y-55566249D02*
X141829971Y-55566249D01*
X141960600Y-55566249D02*
X141960600Y-55058249D01*
X141917057Y-55130820D01*
X141873514Y-55179201D01*
X141829971Y-55203392D01*
X141655800Y-52977868D02*
X141634028Y-53002059D01*
X141568714Y-53026249D01*
X141525171Y-53026249D01*
X141459857Y-53002059D01*
X141416314Y-52953678D01*
X141394542Y-52905297D01*
X141372771Y-52808535D01*
X141372771Y-52735963D01*
X141394542Y-52639201D01*
X141416314Y-52590820D01*
X141459857Y-52542440D01*
X141525171Y-52518249D01*
X141568714Y-52518249D01*
X141634028Y-52542440D01*
X141655800Y-52566630D01*
X141829971Y-52566630D02*
X141851742Y-52542440D01*
X141895285Y-52518249D01*
X142004142Y-52518249D01*
X142047685Y-52542440D01*
X142069457Y-52566630D01*
X142091228Y-52615011D01*
X142091228Y-52663392D01*
X142069457Y-52735963D01*
X141808200Y-53026249D01*
X142091228Y-53026249D01*
X134582988Y-92532200D02*
X134607179Y-92553971D01*
X134631369Y-92619285D01*
X134631369Y-92662828D01*
X134607179Y-92728142D01*
X134558798Y-92771685D01*
X134510417Y-92793457D01*
X134413655Y-92815228D01*
X134341083Y-92815228D01*
X134244321Y-92793457D01*
X134195940Y-92771685D01*
X134147560Y-92728142D01*
X134123369Y-92662828D01*
X134123369Y-92619285D01*
X134147560Y-92553971D01*
X134171750Y-92532200D01*
X134123369Y-92379800D02*
X134123369Y-92096771D01*
X134316893Y-92249171D01*
X134316893Y-92183857D01*
X134341083Y-92140314D01*
X134365274Y-92118542D01*
X134413655Y-92096771D01*
X134534607Y-92096771D01*
X134582988Y-92118542D01*
X134607179Y-92140314D01*
X134631369Y-92183857D01*
X134631369Y-92314485D01*
X134607179Y-92358028D01*
X134582988Y-92379800D01*
X133749868Y-77800200D02*
X133774059Y-77821971D01*
X133798249Y-77887285D01*
X133798249Y-77930828D01*
X133774059Y-77996142D01*
X133725678Y-78039685D01*
X133677297Y-78061457D01*
X133580535Y-78083228D01*
X133507963Y-78083228D01*
X133411201Y-78061457D01*
X133362820Y-78039685D01*
X133314440Y-77996142D01*
X133290249Y-77930828D01*
X133290249Y-77887285D01*
X133314440Y-77821971D01*
X133338630Y-77800200D01*
X133459582Y-77408314D02*
X133798249Y-77408314D01*
X133266059Y-77517171D02*
X133628916Y-77626028D01*
X133628916Y-77343000D01*
X167348988Y-94818200D02*
X167373179Y-94839971D01*
X167397369Y-94905285D01*
X167397369Y-94948828D01*
X167373179Y-95014142D01*
X167324798Y-95057685D01*
X167276417Y-95079457D01*
X167179655Y-95101228D01*
X167107083Y-95101228D01*
X167010321Y-95079457D01*
X166961940Y-95057685D01*
X166913560Y-95014142D01*
X166889369Y-94948828D01*
X166889369Y-94905285D01*
X166913560Y-94839971D01*
X166937750Y-94818200D01*
X166889369Y-94426314D02*
X166889369Y-94513400D01*
X166913560Y-94556942D01*
X166937750Y-94578714D01*
X167010321Y-94622257D01*
X167107083Y-94644028D01*
X167300607Y-94644028D01*
X167348988Y-94622257D01*
X167373179Y-94600485D01*
X167397369Y-94556942D01*
X167397369Y-94469857D01*
X167373179Y-94426314D01*
X167348988Y-94404542D01*
X167300607Y-94382771D01*
X167179655Y-94382771D01*
X167131274Y-94404542D01*
X167107083Y-94426314D01*
X167082893Y-94469857D01*
X167082893Y-94556942D01*
X167107083Y-94600485D01*
X167131274Y-94622257D01*
X167179655Y-94644028D01*
X167309800Y-49033369D02*
X167157400Y-48791464D01*
X167048542Y-49033369D02*
X167048542Y-48525369D01*
X167222714Y-48525369D01*
X167266257Y-48549560D01*
X167288028Y-48573750D01*
X167309800Y-48622131D01*
X167309800Y-48694702D01*
X167288028Y-48743083D01*
X167266257Y-48767274D01*
X167222714Y-48791464D01*
X167048542Y-48791464D01*
X167745228Y-49033369D02*
X167483971Y-49033369D01*
X167614600Y-49033369D02*
X167614600Y-48525369D01*
X167571057Y-48597940D01*
X167527514Y-48646321D01*
X167483971Y-48670512D01*
X167309800Y-56653369D02*
X167157400Y-56411464D01*
X167048542Y-56653369D02*
X167048542Y-56145369D01*
X167222714Y-56145369D01*
X167266257Y-56169560D01*
X167288028Y-56193750D01*
X167309800Y-56242131D01*
X167309800Y-56314702D01*
X167288028Y-56363083D01*
X167266257Y-56387274D01*
X167222714Y-56411464D01*
X167048542Y-56411464D01*
X167483971Y-56193750D02*
X167505742Y-56169560D01*
X167549285Y-56145369D01*
X167658142Y-56145369D01*
X167701685Y-56169560D01*
X167723457Y-56193750D01*
X167745228Y-56242131D01*
X167745228Y-56290512D01*
X167723457Y-56363083D01*
X167462200Y-56653369D01*
X167745228Y-56653369D01*
X167309800Y-51573369D02*
X167157400Y-51331464D01*
X167048542Y-51573369D02*
X167048542Y-51065369D01*
X167222714Y-51065369D01*
X167266257Y-51089560D01*
X167288028Y-51113750D01*
X167309800Y-51162131D01*
X167309800Y-51234702D01*
X167288028Y-51283083D01*
X167266257Y-51307274D01*
X167222714Y-51331464D01*
X167048542Y-51331464D01*
X167462200Y-51065369D02*
X167745228Y-51065369D01*
X167592828Y-51258893D01*
X167658142Y-51258893D01*
X167701685Y-51283083D01*
X167723457Y-51307274D01*
X167745228Y-51355655D01*
X167745228Y-51476607D01*
X167723457Y-51524988D01*
X167701685Y-51549179D01*
X167658142Y-51573369D01*
X167527514Y-51573369D01*
X167483971Y-51549179D01*
X167462200Y-51524988D01*
X167309800Y-54113369D02*
X167157400Y-53871464D01*
X167048542Y-54113369D02*
X167048542Y-53605369D01*
X167222714Y-53605369D01*
X167266257Y-53629560D01*
X167288028Y-53653750D01*
X167309800Y-53702131D01*
X167309800Y-53774702D01*
X167288028Y-53823083D01*
X167266257Y-53847274D01*
X167222714Y-53871464D01*
X167048542Y-53871464D01*
X167701685Y-53774702D02*
X167701685Y-54113369D01*
X167592828Y-53581179D02*
X167483971Y-53944036D01*
X167767000Y-53944036D01*
M02*
