G04 #@! TF.GenerationSoftware,KiCad,Pcbnew,(2018-02-09 revision dba198e57)-makepkg*
G04 #@! TF.CreationDate,2018-02-11T15:57:52+01:00*
G04 #@! TF.ProjectId,videopaccart,766964656F706163636172742E6B6963,rev?*
G04 #@! TF.SameCoordinates,Original*
G04 #@! TF.FileFunction,Soldermask,Top*
G04 #@! TF.FilePolarity,Negative*
%FSLAX46Y46*%
G04 Gerber Fmt 4.6, Leading zero omitted, Abs format (unit mm)*
G04 Created by KiCad (PCBNEW (2018-02-09 revision dba198e57)-makepkg) date 02/11/18 15:57:52*
%MOMM*%
%LPD*%
G01*
G04 APERTURE LIST*
%ADD10R,2.400000X8.100000*%
%ADD11R,0.999440X1.449020*%
%ADD12R,1.449020X1.901140*%
%ADD13R,2.100000X2.100000*%
%ADD14O,2.100000X2.100000*%
%ADD15R,1.600000X1.000000*%
%ADD16R,1.000000X1.600000*%
%ADD17R,0.800000X1.400000*%
%ADD18R,2.400000X4.200000*%
%ADD19R,2.400000X1.900000*%
%ADD20R,1.900000X1.000000*%
%ADD21R,1.600000X0.800000*%
%ADD22R,0.908000X1.543000*%
%ADD23O,2.000000X2.800000*%
%ADD24R,2.000000X2.800000*%
%ADD25R,1.035000X1.543000*%
%ADD26R,1.543000X1.035000*%
%ADD27C,0.254000*%
G04 APERTURE END LIST*
D10*
X175920000Y-127000000D03*
X175920000Y-127000000D03*
X179840000Y-127000000D03*
X172000000Y-127000000D03*
X164160000Y-127000000D03*
X168080000Y-127000000D03*
X144560000Y-127000000D03*
X148480000Y-127000000D03*
X152400000Y-127000000D03*
X156320000Y-127000000D03*
X160240000Y-127000000D03*
X140640000Y-127000000D03*
X136720000Y-127000000D03*
X132800000Y-127000000D03*
X128880000Y-127000000D03*
X124960000Y-127000000D03*
X179840000Y-127000000D03*
X172000000Y-127000000D03*
X168080000Y-127000000D03*
X164160000Y-127000000D03*
X160240000Y-127000000D03*
X156320000Y-127000000D03*
X152400000Y-127000000D03*
X148590000Y-127000000D03*
X144560000Y-127000000D03*
X140640000Y-127000000D03*
X136720000Y-127000000D03*
X132800000Y-127000000D03*
X128880000Y-127000000D03*
X124960000Y-127000000D03*
D11*
X134233920Y-55697120D03*
X133134100Y-55697120D03*
X132034280Y-55697120D03*
X130934460Y-55697120D03*
X129834640Y-55697120D03*
X128734820Y-55697120D03*
X127635000Y-55697120D03*
X126535180Y-55697120D03*
D12*
X137789920Y-58226960D03*
X124338080Y-58226960D03*
X137789920Y-49827180D03*
X124338080Y-49827180D03*
D13*
X172720000Y-53340000D03*
D14*
X172720000Y-50800000D03*
X175260000Y-53340000D03*
X175260000Y-50800000D03*
X177800000Y-53340000D03*
X177800000Y-50800000D03*
D15*
X169613000Y-91053000D03*
X169613000Y-91853000D03*
X169613000Y-92653000D03*
X169613000Y-93453000D03*
X169613000Y-94253000D03*
X169613000Y-95053000D03*
X169613000Y-95853000D03*
X169613000Y-96653000D03*
D16*
X171063000Y-98103000D03*
X171863000Y-98103000D03*
X172663000Y-98103000D03*
X173463000Y-98103000D03*
X174263000Y-98103000D03*
X175063000Y-98103000D03*
X175863000Y-98103000D03*
X176663000Y-98103000D03*
D15*
X178113000Y-96653000D03*
X178113000Y-95853000D03*
X178113000Y-95053000D03*
X178113000Y-94253000D03*
X178113000Y-93453000D03*
X178113000Y-92653000D03*
X178113000Y-91853000D03*
X178113000Y-91053000D03*
D16*
X176663000Y-89603000D03*
X175863000Y-89603000D03*
X175063000Y-89603000D03*
X174263000Y-89603000D03*
X173463000Y-89603000D03*
X172663000Y-89603000D03*
X171863000Y-89603000D03*
X171063000Y-89603000D03*
D17*
X168290000Y-109008000D03*
X167640000Y-109008000D03*
X166990000Y-109008000D03*
X166340000Y-109008000D03*
X165690000Y-109008000D03*
X165040000Y-109008000D03*
X164390000Y-109008000D03*
X163740000Y-109008000D03*
X163090000Y-109008000D03*
X162440000Y-109008000D03*
X162440000Y-114808000D03*
X163090000Y-114808000D03*
X163740000Y-114808000D03*
X164390000Y-114808000D03*
X165040000Y-114808000D03*
X165690000Y-114808000D03*
X166340000Y-114808000D03*
X166990000Y-114808000D03*
X167640000Y-114808000D03*
X168290000Y-114808000D03*
D18*
X152096000Y-52832000D03*
D19*
X145796000Y-52832000D03*
X145796000Y-55132000D03*
X145796000Y-50532000D03*
D20*
X125156000Y-92964000D03*
X125156000Y-94234000D03*
X125156000Y-95504000D03*
X125156000Y-96774000D03*
X125156000Y-98044000D03*
X125156000Y-99314000D03*
X125156000Y-100584000D03*
X130556000Y-100584000D03*
X130556000Y-99314000D03*
X130556000Y-98044000D03*
X130556000Y-96774000D03*
X130556000Y-95504000D03*
X130556000Y-94234000D03*
X130556000Y-92964000D03*
D21*
X132355000Y-68879000D03*
X132355000Y-68229000D03*
X132355000Y-67579000D03*
X132355000Y-66929000D03*
X132355000Y-66279000D03*
X132355000Y-65629000D03*
X132355000Y-64979000D03*
X125455000Y-64979000D03*
X125455000Y-65629000D03*
X125455000Y-66279000D03*
X125455000Y-66929000D03*
X125455000Y-67579000D03*
X125455000Y-68229000D03*
X125455000Y-68879000D03*
D20*
X125603000Y-77216000D03*
X125603000Y-78486000D03*
X125603000Y-79756000D03*
X125603000Y-81026000D03*
X125603000Y-82296000D03*
X125603000Y-83566000D03*
X125603000Y-84836000D03*
X131003000Y-84836000D03*
X131003000Y-83566000D03*
X131003000Y-82296000D03*
X131003000Y-81026000D03*
X131003000Y-79756000D03*
X131003000Y-78486000D03*
X131003000Y-77216000D03*
D22*
X140589000Y-100076000D03*
X141859000Y-100076000D03*
X143129000Y-100076000D03*
X144399000Y-100076000D03*
X145669000Y-100076000D03*
X146939000Y-100076000D03*
X148209000Y-100076000D03*
X149479000Y-100076000D03*
X150749000Y-100076000D03*
X152019000Y-100076000D03*
X153289000Y-100076000D03*
X154559000Y-100076000D03*
X155829000Y-100076000D03*
X157099000Y-100076000D03*
X157099000Y-92964000D03*
X155829000Y-92964000D03*
X154559000Y-92964000D03*
X153289000Y-92964000D03*
X152019000Y-92964000D03*
X150749000Y-92964000D03*
X149479000Y-92964000D03*
X148209000Y-92964000D03*
X146939000Y-92964000D03*
X145669000Y-92964000D03*
X144399000Y-92964000D03*
X143129000Y-92964000D03*
X141859000Y-92964000D03*
X140589000Y-92964000D03*
D23*
X144272000Y-66040000D03*
X177292000Y-81280000D03*
X146812000Y-66040000D03*
X174752000Y-81280000D03*
X149352000Y-66040000D03*
X172212000Y-81280000D03*
X151892000Y-66040000D03*
X169672000Y-81280000D03*
X154432000Y-66040000D03*
X167132000Y-81280000D03*
X156972000Y-66040000D03*
X164592000Y-81280000D03*
X159512000Y-66040000D03*
X162052000Y-81280000D03*
X162052000Y-66040000D03*
X159512000Y-81280000D03*
X164592000Y-66040000D03*
X156972000Y-81280000D03*
X167132000Y-66040000D03*
X154432000Y-81280000D03*
X169672000Y-66040000D03*
X151892000Y-81280000D03*
X172212000Y-66040000D03*
X149352000Y-81280000D03*
X174752000Y-66040000D03*
X146812000Y-81280000D03*
X177292000Y-66040000D03*
D24*
X144272000Y-81280000D03*
D25*
X142494000Y-55372000D03*
X140970000Y-55372000D03*
X140970000Y-52832000D03*
X142494000Y-52832000D03*
D26*
X134366000Y-91694000D03*
X134366000Y-93218000D03*
X133604000Y-76962000D03*
X133604000Y-78486000D03*
X167132000Y-95504000D03*
X167132000Y-93980000D03*
D25*
X166624000Y-48768000D03*
X168148000Y-48768000D03*
X168148000Y-56388000D03*
X166624000Y-56388000D03*
X166624000Y-51308000D03*
X168148000Y-51308000D03*
X168148000Y-53848000D03*
X166624000Y-53848000D03*
D27*
G36*
X184023000Y-130683000D02*
X120777000Y-130683000D01*
X120777000Y-122047000D01*
X184023000Y-122047000D01*
X184023000Y-130683000D01*
X184023000Y-130683000D01*
G37*
X184023000Y-130683000D02*
X120777000Y-130683000D01*
X120777000Y-122047000D01*
X184023000Y-122047000D01*
X184023000Y-130683000D01*
M02*
